<?xml version="1.0" encoding="UTF-8" standalone="no"?>
<!-- Created with Inkscape (http://www.inkscape.org/) -->

<svg
   width="210mm"
   height="297mm"
   viewBox="0 0 210 297"
   version="1.1"
   id="svg5"
   xmlns="http://www.w3.org/2000/svg"
   xmlns:svg="http://www.w3.org/2000/svg">
  <defs
     id="defs2" />
  <g
     id="layer1">
    <g
       aria-label="BURGER"
       id="text113"
       style="font-size:19.7556px;white-space:pre;inline-size:92.8011;fill:#ffffff;stroke:#ffffff;stroke-width:0.264583"
       transform="matrix(1.0536575,0,0,1.1506693,21.393123,-13.966537)">
      <path
         d="m 44.402677,63.186235 q 0,1.639869 -1.118969,2.88424 -1.157555,1.282957 -2.768485,1.282957 -0.877812,0 -2.623791,-0.03858 -1.745978,-0.03859 -2.614144,-0.03859 -0.501607,0 -1.504821,0.03859 -1.003214,0.03858 -1.495175,0.03858 -0.318328,0 -0.318328,-0.279743 0,-1.051445 0.115756,-3.154336 0.115755,-2.112538 0.115755,-3.163983 0,-1.099677 -0.106109,-4.196136 -0.02894,-0.800642 -0.106109,-2.382633 l -0.0096,-0.135048 q -0.01929,-0.221865 0.241157,-0.221865 h 6.607708 q 2.430865,0 3.829577,0.945336 0.665594,0.453376 1.061092,1.311896 0.376205,0.810288 0.376205,1.659162 0,0.67524 -0.569131,1.581991 -0.559485,0.906751 -0.559485,0.800642 0,0.07717 0.241157,0.26045 1.205786,0.906751 1.205786,2.80707 z M 38.836769,57.87113 q 0,-0.752411 -1.504822,-0.752411 -0.33762,0 -0.405144,0.154341 -0.02894,0.06752 -0.02894,0.501607 0,0.424436 0.03859,0.520899 0.08682,0.163987 0.453375,0.163987 1.446944,0 1.446944,-0.588423 z m 0.327973,4.9389 q 0,-0.790996 -1.755624,-0.790996 -0.405144,0 -0.482315,0.144694 -0.02894,0.05788 -0.02894,0.549839 0,0.482314 0.04823,0.569131 0.09646,0.15434 0.5209,0.15434 0.790995,0 1.032152,-0.03858 0.665594,-0.125402 0.665594,-0.588423 z"
         style="font-weight:bold;font-family:'Berlin Sans FB';-inkscape-font-specification:'Berlin Sans FB Bold';fill:#ffffff;stroke:#ffffff"
         id="path165" />
      <path
         d="m 58.04253,54.051199 q 0,1.11897 -0.09646,3.356909 -0.08682,2.228292 -0.08682,3.347262 0,0.318328 0.0096,0.945336 0.0096,0.627009 0.0096,0.945337 0,2.681668 -0.771703,3.578773 -1.167201,1.389066 -5.662371,1.389066 -2.536975,0 -3.752407,-0.511254 -1.138262,-0.482314 -1.524114,-1.601284 -0.289388,-0.85852 -0.289388,-2.826362 0,-0.279743 0.0096,-0.916398 0,-0.636655 0,-1.003214 0,-1.11897 -0.09646,-3.356909 -0.08682,-2.247585 -0.08682,-3.366554 0,-0.212219 0.23151,-0.212219 0.713826,0 2.151123,0.01929 1.446943,0.01929 2.160769,0.01929 0.617362,0 0.472668,-0.0096 0.327974,0.02894 0.327974,0.212218 0,1.109324 -0.10611,3.337616 -0.09646,2.228293 -0.09646,3.337616 0,0.125402 -0.0096,0.434083 -0.0096,0.308682 -0.0096,0.472669 0,1.861733 1.147908,1.861733 0.93569,0 0.93569,-1.437297 0,-1.311895 -0.08682,-3.945332 -0.07717,-2.633437 -0.07717,-3.945332 0,-0.289389 0.163986,-0.299035 0.347267,-0.03859 1.205787,-0.0096 1.157554,0.02894 1.254017,0.02894 0.405144,0 1.215433,-0.03859 0.810288,-0.03858 1.215432,-0.03858 0.241157,0 0.241157,0.231511 z"
         style="font-weight:bold;font-family:'Berlin Sans FB';-inkscape-font-specification:'Berlin Sans FB Bold';fill:#ffffff;stroke:#ffffff"
         id="path167" />
      <path
         d="m 72.116466,67.247323 q 0,0.106109 -0.26045,0.106109 -0.424437,0 -1.263664,-0.03858 -0.829581,-0.03859 -1.244371,-0.03859 -0.405144,0 -1.205786,0.03859 -0.790996,0.03858 -1.186494,0.03858 -0.327974,0 -0.434083,-0.241158 -0.173633,-0.434083 -0.501607,-1.311895 -0.318327,-0.790996 -0.906751,-2.401926 -0.135048,-0.41479 -0.250803,-0.41479 -0.08682,0 -0.08682,0.318327 0,0.655948 0.125402,1.967843 0.135048,1.311896 0.135048,1.929258 0,0.221865 -0.192926,0.221865 -0.06752,0 -0.241157,-0.02894 -0.829581,-0.115756 -2.508035,-0.115756 -0.366559,0 -1.109324,0.03859 -0.733118,0.03858 -1.099677,0.03858 -0.318327,0 -0.318327,-0.279743 0,-1.080384 0.115755,-3.241153 0.115756,-2.170415 0.115756,-3.250799 0,-2.758839 -0.270096,-6.405136 l -0.0096,-0.135048 q -0.01929,-0.192926 0.18328,-0.221865 -0.01929,0 0.366559,0 1.051445,0 3.173629,-0.02894 2.122184,-0.02894 3.183275,-0.02894 2.257232,0 3.723468,0.954983 1.707393,1.128616 1.707393,3.270092 0,1.389066 -0.41479,2.237939 -0.405144,0.848874 -1.485529,1.620577 -0.231511,0.163987 -0.231511,0.318327 0,0.115756 1.19614,2.546621 1.19614,2.430864 1.19614,2.536974 z m -5.4598,-8.565905 q 0,-1.090031 -1.601284,-1.090031 -0.395498,0 -0.395498,1.205786 0,0.144695 0.01929,0.434083 0.01929,0.289389 0.01929,0.434083 0,0.144695 0.395497,0.144695 1.562699,0 1.562699,-1.128616 z"
         style="font-weight:bold;font-family:'Berlin Sans FB';-inkscape-font-specification:'Berlin Sans FB Bold';fill:#ffffff;stroke:#ffffff"
         id="path169" />
      <path
         d="m 86.547312,66.822886 q 0,0.289388 -0.33762,0.289388 -0.482314,0 -1.418004,-0.163986 -0.964629,-0.173634 -1.418005,-0.18328 -1.881026,0.964629 -3.530542,0.964629 -2.942118,0 -5.054655,-2.083598 -2.102891,-2.093245 -2.102891,-5.025717 0,-2.999996 2.073952,-5.073948 2.083598,-2.083599 5.083594,-2.083599 1.427651,0 2.951765,0.636656 1.659161,0.684886 2.421218,1.774917 0.18328,0.26045 0.18328,0.443729 0,0.289389 -1.070738,1.475882 -1.003214,1.109323 -1.369773,1.340834 -0.192926,0.125402 -0.385852,0.125402 -0.163987,0 -0.897105,-0.453375 -0.723472,-0.463022 -1.601284,-0.463022 -0.926044,0 -1.572345,0.67524 -0.636655,0.665594 -0.636655,1.601284 0,0.93569 0.67524,1.649515 0.684887,0.713826 1.61093,0.713826 0.627009,0 1.128616,-0.231511 -0.01929,-0.241157 -0.15434,-1.360127 -0.09646,-0.839227 -0.09646,-1.35048 0,-0.10611 0.03858,-0.192926 0.05788,-0.05788 0.202572,-0.05788 0.06752,0 0.5209,0.05788 0.67524,0.07717 1.900319,0.07717 0.424436,0 1.27331,-0.03859 0.848873,-0.03858 1.27331,-0.03858 0.279742,0 0.279742,0.231511 0,0.520899 -0.09646,1.562699 -0.08682,1.041799 -0.08682,1.562698 0,0.607717 0.106109,1.842442 0.106109,1.225078 0.106109,1.774917 z"
         style="font-weight:bold;font-family:'Berlin Sans FB';-inkscape-font-specification:'Berlin Sans FB Bold';fill:#ffffff;stroke:#ffffff"
         id="path171" />
      <path
         d="m 98.547298,63.48527 q 0,0.347266 -0.125401,0.93569 -0.173634,0.829581 -0.192926,0.93569 -0.07717,0.665594 -0.318328,1.958197 -0.04823,0.221864 -0.356912,0.221864 -0.09646,0 -0.270096,-0.02894 -1.697747,-0.231511 -4.504817,-0.231511 -0.771704,0 -2.305464,0.03859 -1.53376,0.03858 -2.295816,0.03858 -0.318328,0 -0.318328,-0.279743 0,-1.080384 0.115756,-3.241153 0.115755,-2.170415 0.115755,-3.250799 0,-1.099677 -0.106109,-4.099673 -0.02894,-0.771703 -0.106109,-2.305463 l -0.0096,-0.135048 q -0.01929,-0.221865 0.241158,-0.221865 0.75241,0 2.257231,0.03858 1.514468,0.03859 2.276524,0.03859 0.762057,0 2.305464,-0.03859 1.543406,-0.03858 2.315109,-0.03858 0.540192,0 0.646301,0.491961 0.04823,0.192926 0.192926,1.697747 0.144694,1.495175 0.144694,1.707393 0,0.192926 -0.202572,0.192926 -0.520899,0 -1.572345,-0.106109 -1.051445,-0.10611 -1.581991,-0.10611 -0.85852,0 -0.983922,0.0096 -0.75241,0.06752 -0.75241,0.405144 0,0.463022 0.897105,0.578777 0.250803,0.02894 1.234725,0.02894 0.810288,0 1.553052,-0.07717 0.983922,-0.09646 0.800642,-0.09646 0.250804,0 0.250804,0.279742 0,0.270096 -0.08682,0.829581 -0.115755,0.684887 -0.125402,0.85852 -0.125401,1.292602 -0.125401,1.842441 0,0.212218 -0.299035,0.212218 0.08682,0 -0.839227,-0.115755 -1.032153,-0.125402 -2.382634,-0.125402 -0.877812,0 -0.877812,0.482315 0,0.23151 0.115755,0.33762 0.279743,0.231511 2.903533,0.231511 0.356913,0 1.061092,-0.05788 0.713825,-0.06752 1.070738,-0.06752 0.241157,0 0.241157,0.231511 z"
         style="font-weight:bold;font-family:'Berlin Sans FB';-inkscape-font-specification:'Berlin Sans FB Bold';fill:#ffffff;stroke:#ffffff"
         id="path173" />
      <path
         d="m 112.08104,67.247323 q 0,0.106109 -0.26045,0.106109 -0.42444,0 -1.26367,-0.03858 -0.82958,-0.03859 -1.24437,-0.03859 -0.40514,0 -1.20578,0.03859 -0.791,0.03858 -1.1865,0.03858 -0.32797,0 -0.43408,-0.241158 -0.17363,-0.434083 -0.50161,-1.311895 -0.31833,-0.790996 -0.90675,-2.401926 -0.13505,-0.41479 -0.2508,-0.41479 -0.0868,0 -0.0868,0.318327 0,0.655948 0.1254,1.967843 0.13505,1.311896 0.13505,1.929258 0,0.221865 -0.19293,0.221865 -0.0675,0 -0.24115,-0.02894 -0.82958,-0.115756 -2.50804,-0.115756 -0.36656,0 -1.10932,0.03859 -0.73312,0.03858 -1.099678,0.03858 -0.318327,0 -0.318327,-0.279743 0,-1.080384 0.115755,-3.241153 0.115756,-2.170415 0.115756,-3.250799 0,-2.758839 -0.270096,-6.405136 l -0.0096,-0.135048 q -0.01929,-0.192926 0.18328,-0.221865 -0.01929,0 0.36656,0 1.05145,0 3.17363,-0.02894 2.12218,-0.02894 3.18328,-0.02894 2.25723,0 3.72346,0.954983 1.7074,1.128616 1.7074,3.270092 0,1.389066 -0.41479,2.237939 -0.40515,0.848874 -1.48553,1.620577 -0.23151,0.163987 -0.23151,0.318327 0,0.115756 1.19614,2.546621 1.19614,2.430864 1.19614,2.536974 z m -5.4598,-8.565905 q 0,-1.090031 -1.60129,-1.090031 -0.39549,0 -0.39549,1.205786 0,0.144695 0.0193,0.434083 0.0193,0.289389 0.0193,0.434083 0,0.144695 0.3955,0.144695 1.5627,0 1.5627,-1.128616 z"
         style="font-weight:bold;font-family:'Berlin Sans FB';-inkscape-font-specification:'Berlin Sans FB Bold';fill:#ffffff;stroke:#ffffff"
         id="path175" />
    </g>
  </g>
</svg>
